<svg width="95" height="87" viewBox="0 0 95 87" fill="none" xmlns="http://www.w3.org/2000/svg">
<rect width="95" height="86.6966" rx="8" fill="#00E096"/>
<path d="M37.9622 27.2909C36.0417 29.076 36.0417 31.9646 37.9978 33.7498L42.2656 37.6446C46.2845 41.3122 46.2845 47.2842 42.2656 50.9518L34.4413 43.8113C32.4318 41.9775 31.4182 39.5595 31.4182 37.1577C31.4182 34.7559 32.4318 32.3379 34.4413 30.5041L37.9089 27.3396C37.9267 27.3233 37.9445 27.3071 37.9622 27.2909Z" fill="#00E096" stroke="white" stroke-width="2" stroke-miterlimit="10"/>
<path d="M41.3766 36.831L37.9979 33.7476C36.0418 31.9625 36.0241 29.0901 37.9624 27.2887C39.8829 25.5685 42.9415 25.601 44.8443 27.3374C45.8045 28.2138 46.2846 29.366 46.2846 30.502C46.2846 31.6379 45.8045 32.7902 44.8443 33.6665L44.044 34.3968" fill="#00E096"/>
<path d="M41.3766 36.831L37.9979 33.7476C36.0418 31.9625 36.0241 29.0901 37.9624 27.2887C39.8829 25.5685 42.9415 25.601 44.8443 27.3374C45.8045 28.2138 46.2846 29.366 46.2846 30.502C46.2846 31.6379 45.8045 32.7902 44.8443 33.6665L44.044 34.3968" stroke="white" stroke-width="2" stroke-miterlimit="10"/>
<path d="M58.1524 59.1789C60.0729 57.3938 60.0729 54.5051 58.1168 52.72L53.849 48.8252C49.8301 45.1576 49.8301 39.1855 53.849 35.5179L61.6733 42.6584C63.6828 44.4922 64.6964 46.9102 64.6964 49.312C64.6964 51.7138 63.6828 54.1319 61.6733 55.9657L58.2057 59.1302C58.1701 59.1627 58.1524 59.1789 58.1524 59.1789Z" fill="#00E096" stroke="white" stroke-width="2" stroke-miterlimit="10"/>
<path d="M54.7067 49.6524L58.0854 52.7358C60.0415 54.5209 60.0593 57.3933 58.121 59.1947C56.2005 60.9149 53.1418 60.8824 51.2391 59.146C50.2788 58.2696 49.7987 57.1174 49.7987 55.9814C49.7987 54.8455 50.2788 53.6932 51.2391 52.8169L52.0571 52.0704" fill="#00E096"/>
<path d="M54.7067 49.6524L58.0854 52.7358C60.0415 54.5209 60.0593 57.3933 58.121 59.1947C56.2005 60.9149 53.1418 60.8824 51.2391 59.146C50.2788 58.2696 49.7987 57.1174 49.7987 55.9814C49.7987 54.8455 50.2788 53.6932 51.2391 52.8169L52.0571 52.0704" stroke="white" stroke-width="2" stroke-miterlimit="10"/>
</svg>
